<?xml version="1.0" encoding="utf-8"?>
<svg width="741" height="162" viewBox="0 0 741 162" fill="none" xmlns="http://www.w3.org/2000/svg">
  <g>
    <path d="M81.6328 83.0962C81.6328 61.897 64.4678 44.5342 43.2686 44.5342C22.0298 44.5342 4.86475 61.897 4.86475 83.0962C4.86475 104.335 22.0298 121.5 43.2686 121.5L43.2686 106.431C30.2959 106.431 19.9336 95.9106 19.9336 83.0962C19.9336 70.1631 30.2959 59.603 43.2686 59.603C56.2017 59.603 66.564 70.1631 66.564 83.0962L66.564 113.55L66.564 121.5L81.6328 121.5L81.6328 83.0962ZM106.442 24.7983L91.3727 24.7983L91.3727 90.5713C91.3727 107.578 105.136 121.5 122.143 121.5L129.421 121.5L129.421 106.431L122.143 106.431C113.403 106.431 106.442 99.312 106.442 90.5713L106.442 24.7983ZM177.211 59.959L177.211 44.8901L154.232 44.8901L154.232 25.1147L139.163 25.1147L139.163 90.8877C139.163 107.895 152.926 121.658 169.933 121.658L177.211 121.658L177.211 106.589L169.933 106.589C161.193 106.589 154.232 99.6284 154.232 90.8877L154.232 59.959L177.211 59.959ZM254.031 45.0483L238.962 45.0483L238.962 88.4355C238.962 98.6396 230.696 106.906 220.492 106.906C210.288 106.906 202.022 98.6396 202.022 88.4355L202.022 45.0483L186.953 45.0483L186.953 88.4355C186.953 106.906 201.863 121.975 220.492 121.975C238.962 121.975 254.031 106.906 254.031 88.4355L254.031 45.0483ZM340.351 44.5342L321.089 44.5342L301.986 69.8071L283.002 44.5342L263.741 44.5342L292.415 81.791L263.741 121.816L283.002 121.816L301.986 93.8145L321.089 121.816L340.351 121.816L311.676 81.791L340.351 44.5342Z" fill="#4DFF00" />
    <path d="M19.9336 96.7017L4.86475 96.7017L4.86475 98.165C4.86475 113.234 20.7246 124.585 36.624 124.585C52.9585 124.585 68.3833 114.381 68.3833 98.165C68.3833 85.1924 57.665 80.3672 46.9863 78.0732C42.1216 77.124 19.9336 75.8188 19.9336 68.8579C19.9336 63.9932 25.4312 57.665 36.624 57.665C46.6699 57.665 53.3145 65.2983 53.3145 68.8579L53.3145 70.4795L68.3833 70.4795L68.3833 68.8579C68.3833 53.7891 51.1787 42.5962 36.624 42.5962C21.041 42.5962 4.86475 52.1675 4.86475 68.8579C4.86475 82.147 15.2271 87.4863 26.064 89.7407C30.4541 90.7295 53.3145 92.5093 53.3145 98.165C53.3145 102.872 48.2915 109.516 36.624 109.516C25.7476 109.516 19.9336 102.041 19.9336 98.165L19.9336 96.7017ZM116.137 59.959L116.137 44.8901L93.1576 44.8901L93.1576 25.1147L78.0887 25.1147L78.0887 90.8877C78.0887 107.895 91.8524 121.658 108.859 121.658L116.137 121.658L116.137 106.589L108.859 106.589C100.119 106.589 93.1576 99.6284 93.1576 90.8877L93.1576 59.959L116.137 59.959ZM192.957 45.0483L177.888 45.0483L177.888 88.4355C177.888 98.6396 169.622 106.906 159.418 106.906C149.214 106.906 140.948 98.6396 140.948 88.4355L140.948 45.0483L125.879 45.0483L125.879 88.4355C125.879 106.906 140.789 121.975 159.418 121.975C177.888 121.975 192.957 106.906 192.957 88.4355L192.957 45.0483ZM241.071 59.603L241.071 44.5342C219.832 44.5342 202.667 61.897 202.667 83.0962C202.667 104.335 219.832 121.5 241.071 121.5C262.27 121.5 279.435 104.335 279.435 83.0962L279.435 24.7983L264.366 24.7983L264.366 34.1719L264.366 52.4839L264.366 83.0962C264.366 95.9106 254.004 106.431 241.071 106.431C228.098 106.431 217.736 95.9106 217.736 83.0962C217.736 70.1631 228.098 59.603 241.071 59.603ZM304.244 44.8901L289.175 44.8901L289.175 121.5L304.244 121.5L304.244 44.8901ZM375.66 83.2544C375.66 96.2271 365.298 106.589 352.365 106.589C339.392 106.589 329.03 96.2271 329.03 83.2544C329.03 70.3213 339.392 59.959 352.365 59.959C365.298 59.959 375.66 70.3213 375.66 83.2544ZM390.729 83.2544C390.729 62.0552 373.564 44.8901 352.365 44.8901C331.126 44.8901 313.961 62.0552 313.961 83.2544C313.961 104.493 331.126 121.658 352.365 121.658C373.564 121.658 390.729 104.493 390.729 83.2544Z" transform="translate(345.222 0)" fill="#FFFFFF" />
  </g>
</svg>